<svg width="715" height="768" viewBox="0 0 715 768" fill="none" xmlns="http://www.w3.org/2000/svg">
<g clip-path="url(#clip0_43_4585)">
<path opacity="0.16" fill-rule="evenodd" clip-rule="evenodd" d="M619.333 -303.462C745.045 -293.105 783.189 -130.006 856.28 -27.2464C910.354 48.7766 963.823 118.585 984.265 209.598C1012.67 336.08 1072.97 481.16 993.47 583.574C911.408 689.284 751.309 702.066 619.333 679.694C504.768 660.273 425.567 566.389 353.695 475.121C292.509 397.424 251.656 308.446 249.139 209.598C246.548 107.848 280.253 12.7569 339.818 -69.7957C413.68 -172.162 493.493 -313.829 619.333 -303.462Z" fill="url(#paint0_linear_43_4585)"/>
<path opacity="0.48" fill-rule="evenodd" clip-rule="evenodd" d="M515.351 -300.827C640.868 -313.324 707.817 -159.785 798.25 -71.9012C865.154 -6.88341 930.342 52.1305 966.871 137.962C1017.64 257.241 1103.13 389.058 1043.41 504.137C981.767 622.92 826.602 664.381 692.756 666.191C576.567 667.761 481.726 589.71 394.564 512.909C320.363 447.527 264.125 367.382 243.813 270.611C222.904 170.998 238.897 71.3861 282.588 -20.5596C336.766 -134.573 389.706 -288.317 515.351 -300.827Z" stroke="#72A5EF" stroke-width="2"/>
<path d="M255.101 503.608C256.222 504.109 257.294 504.71 258.307 505.521L255.101 503.608ZM186.677 486.558L188.87 483.056C188.807 483.056 188.744 483.056 188.68 483.056C187.996 484.198 187.326 485.364 186.677 486.558ZM194.831 532.095L196.158 532.233C195.226 532.031 194.294 531.822 193.374 531.593L194.831 532.095ZM245.703 504.747L245.918 504.503C245.618 504.653 245.316 504.801 245.008 504.94L245.703 504.747ZM237.291 506.289C237.482 506.307 237.673 506.329 237.864 506.348C240.058 505.622 242.175 504.889 244.015 503.816L237.248 505.693C237.266 505.89 237.283 506.089 237.291 506.289ZM179.878 522.938C179.932 522.989 179.99 523.032 180.044 523.081L178.797 521.503C179.087 522.029 179.438 522.514 179.878 522.938ZM247.884 500.246L245.925 502.464C246.658 501.835 247.32 501.107 247.884 500.246ZM210.761 532.387C217.227 533.2 223.766 533.637 230.244 533.848L214.758 532.795L210.761 532.387ZM384.561 467.398C390.517 465.864 396.472 464.304 402.373 462.562C402.358 462.494 402.344 462.427 402.33 462.362C401.15 459.385 400.515 456.189 399.194 453.268C396.558 447.448 392.746 448.391 387.547 451.276C384.949 452.716 379.911 453.745 376.821 455.848C376.011 460.509 375.167 465.161 374.302 469.809L375.075 469.783C378.239 468.996 381.404 468.212 384.561 467.398ZM447.469 507.112C445.219 498.749 441.874 490.461 437.344 483.04C437.277 483.05 437.209 483.058 437.15 483.058C433.805 483.058 430.46 483.058 427.117 483.058C429.053 489.721 433.618 504.931 427.861 506.338C421.035 508.008 412.926 507.353 405.925 507.833C401.506 508.136 395.925 507.709 390.591 508.079C390.058 508.233 389.481 508.32 388.954 508.225C383.949 508.75 379.298 510.128 376.22 513.704C375.407 514.65 371.484 514.918 372.596 513.627C375.86 509.836 380.523 507.969 385.367 507.011C381.279 505.577 377.188 504.156 373.136 502.621C371.117 504.545 368.899 506.363 366.798 508.248C363.876 522.919 360.988 537.596 358.392 552.33C367.927 552.33 377.459 552.33 386.994 552.33C389.424 546.94 391.521 541.419 393.54 535.862C393.597 535.706 393.731 535.565 393.906 535.438C391.234 535.495 388.58 535.524 385.961 535.532C384.094 535.538 387.75 534.03 388.509 534.027C397.92 533.999 408.035 533.835 417.895 532.664L426.123 531.414C430.639 530.566 435.046 529.451 439.232 527.961C442.582 526.767 447.325 525.049 448.314 521.135C449.474 516.547 448.68 511.612 447.469 507.112ZM336.567 552.33C342.559 552.33 348.552 552.33 354.543 552.33C356.849 539.278 359.386 526.267 361.967 513.269C352.148 525.375 344.819 539.156 336.567 552.33ZM374.371 501.397C375.075 501.13 375.812 500.951 376.247 501.118C380.622 502.788 385.048 504.315 389.466 505.867C389.636 504.665 389.96 503.507 390.415 502.406C390.28 502.417 390.155 502.417 390.05 502.395C385.581 501.494 381.679 498.814 377.227 497.965C376.399 499.175 375.427 500.308 374.371 501.397ZM350.957 393.167C325.989 393.167 301.022 393.167 276.054 393.167C279.005 401.187 282.354 409.013 286.107 416.59C304.402 416.59 322.697 416.59 340.99 416.59C344.724 409.013 348.041 401.186 350.957 393.167ZM367.682 272.037C366.576 250.711 363.708 228.743 355.757 208.781C350.085 194.546 340.76 178.2 325.043 173.514C322.516 172.761 320.089 172.246 317.748 171.924C317.053 171.908 316.361 171.889 315.667 171.879H307.548C307.469 171.88 307.391 171.88 307.313 171.881C303.598 172.409 300.165 173.529 296.984 175.129L291.312 178.682C271.05 194.046 263.062 230.706 260.53 253.779C255.629 298.455 259.693 346.945 274.97 390.141C300.658 390.141 326.347 390.141 352.034 390.141C365.159 352.574 369.709 311.081 367.682 272.037Z" fill="#A2C9F9"/>
<path d="M166.941 474.624C169.583 475.423 172.179 476.365 174.829 477.142C175.969 477.476 178.653 476.029 177.767 475.231C177.881 474.705 177.986 474.174 178.096 473.644C180.382 474.274 182.631 474.852 185.043 474.847C185.462 476.899 186.136 478.953 186.703 480.789C186.723 480.852 186.77 480.899 186.83 480.941C186.633 481.046 186.472 481.166 186.382 481.306C180.854 489.883 176.309 500.245 174.539 510.328C172.858 519.911 174.706 525.079 183.769 528.589C186.86 529.785 190.076 530.774 193.377 531.592C194.297 531.821 195.227 532.028 196.161 532.232C206.994 534.584 218.592 535.253 229.618 535.45C229.382 535.628 229.228 535.835 229.21 536.071C228.701 542.821 232.649 548.166 237.505 552.329C233.45 552.329 229.396 552.329 225.341 552.329C224.817 552.329 224.218 552.582 223.726 552.927C222.863 553.129 222.088 553.653 222.088 554.352C222.088 559.535 222.088 564.715 222.088 569.898C222.088 570.455 222.428 570.784 222.905 570.937C223.077 571.091 223.395 571.19 223.91 571.19C227.591 571.19 231.272 571.19 234.953 571.19C240.354 591.911 245.98 612.607 252.363 633.049C254.606 640.23 256.437 651.943 263.401 656.232C269.26 659.84 277.727 659.778 284.321 659.947C293.004 660.168 301.679 659.489 310.359 659.439C310.734 659.438 311.146 659.302 311.53 659.101C311.678 659.3 312.006 659.435 312.601 659.439C327.584 659.525 345.038 662.694 359.272 656.685C367.118 653.374 368.994 641.863 371.299 634.68C378.013 613.752 383.721 592.461 389.264 571.19C393.502 571.19 397.74 571.19 401.977 571.19C402.276 571.19 402.597 571.107 402.909 570.973C403.813 570.792 404.657 570.255 404.657 569.528C404.657 564.345 404.657 559.165 404.657 553.982C404.657 553.726 404.581 553.52 404.458 553.354C404.751 552.812 404.563 552.329 403.411 552.329C399.132 552.329 394.855 552.329 390.576 552.329C393.112 546.778 395.275 541.08 397.361 535.345C412.35 534.867 427.814 533.261 441.682 528.323C449.076 525.689 453.082 522.074 452.715 513.84C452.206 502.438 446.379 489.883 440.283 480.422C440.178 480.261 439.975 480.179 439.721 480.154C439.806 480.074 439.87 479.991 439.898 479.902C440.392 478.302 440.963 476.577 441.385 474.843C443.753 474.702 446.017 474.023 448.309 473.376C448.479 474.218 448.65 475.062 448.83 475.898C448.684 476.095 448.604 476.317 448.672 476.567C448.895 477.399 450.312 477.232 450.893 477.072C454.031 476.201 457.255 475.696 460.392 474.827C460.975 474.666 462.289 474.116 462.065 473.275C460.94 467.497 459.815 461.718 458.692 455.94C458.568 455.309 457.445 455.272 456.433 455.561C452.851 455.252 449.346 456.094 446.301 458.023C445.679 458.416 445.226 459.331 446.029 459.807C446.039 459.812 446.051 459.812 446.058 459.817C446.093 460.103 446.137 460.39 446.173 460.676C443.502 461.4 440.839 462.234 438.098 462.622C437.77 462.668 437.408 462.763 437.078 462.913C433.078 460.913 427.767 460.721 423.631 462.519C423.045 462.66 422.487 462.938 422.148 463.284C421.952 463.402 421.753 463.518 421.564 463.648C420.886 464.114 421.232 464.261 421.89 464.243C421.92 464.316 421.955 464.386 422.01 464.457C422.637 465.274 423.02 466.269 423.253 467.307C418.327 468.62 413.403 469.931 408.479 471.244C407.85 468.643 407.255 466.039 406.689 463.424C410.054 462.404 414.112 461.473 416.978 459.362C419.106 457.796 415.783 457.26 414.552 458.167C412.28 459.84 409.146 460.685 406.258 461.458C406.247 461.41 406.235 461.361 406.226 461.312C406.183 461.201 406.14 461.088 406.095 460.977C402.928 452.84 400.76 442.019 389.645 447.77C386.098 449.605 382.918 451.433 379.099 452.738C378.451 452.96 377.83 453.185 377.232 453.429C377.572 451.444 377.916 449.461 378.245 447.475C379.235 441.511 380.131 435.534 380.978 429.548C381.55 425.507 382.808 421.447 380.9 417.847C389.725 411.526 397.51 401.831 404.246 393.098C405.277 392.858 405.833 391.96 405.697 391.212C405.954 390.877 406.215 390.538 406.469 390.208C413.995 380.412 420.462 369.846 425.911 358.76C445.442 319.032 450.519 269.756 430.111 229.346C408.807 187.162 363.7 169.528 318.588 169.528C317.704 169.528 316.822 169.534 315.939 169.54C315.746 169.537 315.558 169.528 315.364 169.528C315.114 169.528 314.874 169.544 314.626 169.546C292.897 169.736 271.773 171.624 251.337 179.935C231.814 187.876 215.046 201.477 203.178 218.898C177.962 255.916 179.376 305.163 194.867 345.622C201.26 362.317 210.28 377.877 221.241 391.937C221.265 392.395 221.534 392.813 222.089 393.024C229.385 402.247 237.513 410.813 246.308 418.595C246.356 418.848 246.601 419.034 247.125 419.09C244.43 427.805 248.361 439.307 249.822 447.862C250.204 450.098 250.608 452.331 250.998 454.568C245.073 450.564 237.615 448.149 232.404 448.018C227.846 447.904 221.936 448.614 218.772 452.401C215.789 455.97 216.652 459.811 220.284 462.392C219.679 465.186 219.053 467.98 218.396 470.768C213.492 469.46 208.587 468.154 203.683 466.847C203.588 466.82 203.459 466.819 203.313 466.829C203.621 465.599 204.083 464.506 204.651 463.768C204.665 463.749 204.667 463.734 204.679 463.715C205.234 463.421 205.59 463.125 205.425 463.012C201.179 460.095 195.125 461.214 190.519 463.318C190.364 462.993 189.993 462.737 189.331 462.644C186.282 462.213 183.338 461.294 180.366 460.51C180.421 460.092 180.48 459.677 180.533 459.26C181.127 458.795 181.349 458.199 180.601 457.726C177.83 455.971 174.632 455.316 171.393 455.551C170.412 455.203 168.126 455.809 167.947 456.736C166.822 462.515 165.697 468.293 164.573 474.071C164.413 474.891 165.781 474.962 166.941 474.624ZM180.044 523.081C179.99 523.032 179.932 522.989 179.878 522.938C179.438 522.515 179.087 522.029 178.797 521.505C177.109 518.458 177.731 513.955 178.157 510.846C179.283 502.636 182.568 494.113 186.677 486.559C187.326 485.366 187.994 484.199 188.68 483.058C188.743 483.058 188.807 483.058 188.87 483.058C192.495 483.058 196.119 483.058 199.744 483.058C198.123 488.978 193.307 506.159 198.419 506.48C206.33 506.974 214.262 507.748 222.186 507.934C231.174 508.145 243.929 506.9 250.409 514.43C251.288 515.451 255.017 514.056 254.026 512.904C250.608 508.933 245.564 507.415 240.468 506.671C242.022 506.151 243.557 505.599 245.008 504.941C245.316 504.801 245.618 504.654 245.918 504.505C247.416 503.752 248.792 502.849 249.966 501.707C250.229 501.808 250.55 501.917 250.986 502.069C252.416 502.566 253.792 503.024 255.102 503.61C256.223 504.111 257.295 504.712 258.309 505.523C258.686 505.826 259.06 506.15 259.421 506.516C259.916 507.019 260.372 507.543 260.85 508.056C263.683 522.821 266.568 537.575 269.438 552.333C260.572 552.333 251.706 552.333 242.84 552.333C237.454 548.147 232.77 542.671 233.09 535.501C234.784 535.52 236.465 535.53 238.117 535.535C238.877 535.538 242.535 534.037 240.665 534.03C237.224 534.019 233.743 533.967 230.245 533.851C223.768 533.639 217.228 533.204 210.763 532.389C203.52 531.477 196.372 530.096 189.517 528.007C186.129 526.973 182.666 525.526 180.044 523.081ZM271.16 521.215C271.255 521.355 271.345 521.499 271.439 521.639C271.428 521.948 271.586 522.254 272.011 522.515C278.383 532.174 283.886 542.391 289.81 552.329C284.384 552.329 278.959 552.329 273.534 552.329C271.069 539.641 268.594 526.954 266.145 514.262C267.887 516.508 269.55 518.82 271.16 521.215ZM283.265 474.458C284.59 474.214 285.911 474.011 287.216 473.872L283.265 474.458ZM218.061 476.433C218.256 476.39 218.497 476.297 218.733 476.175C219.784 476.168 221.087 475.606 221.337 474.653C222.201 471.351 222.942 468.014 223.67 464.678C226.257 467.041 229.619 468.463 233.038 469.386C230.898 474.19 234.767 478.981 238.016 482.711C238.668 483.461 241.423 482.588 241.878 481.825C243.562 479.015 248.047 487.358 243.406 488.06C243.183 488.092 240.779 488.716 241.08 489.238C242.816 492.246 245.766 496.026 249.123 497.306C248.854 497.895 248.584 498.484 248.315 499.073C248.082 499.345 247.848 499.714 247.994 500.063C247.957 500.124 247.922 500.188 247.883 500.247C247.32 501.11 246.657 501.836 245.923 502.465C245.332 502.973 244.694 503.422 244.015 503.818C242.176 504.89 240.058 505.623 237.864 506.349C237.673 506.33 237.481 506.309 237.291 506.29C237.282 506.091 237.266 505.891 237.248 505.694C236.953 502.263 235.47 499.098 232.933 496.734C231.197 495.116 228.602 494.314 226.294 494.074C221.569 493.585 219.727 488.693 219.679 484.517C220.706 483.94 221.332 482.989 219.946 482.548C218.27 482.015 217.039 480.895 216.679 479.141C216.453 478.035 216.898 476.691 218.061 476.433ZM215.857 484.146C215.847 484.183 215.829 484.219 215.825 484.258C215.578 487.267 216.08 490.671 218.27 492.96C220.869 495.679 223.316 495.178 226.658 496.436C230.532 497.894 232.727 501.987 233.282 505.976C225.269 505.405 217.187 505.377 209.163 504.859C206.087 504.662 203.011 504.467 199.935 504.273C200.108 504.285 200.587 497.899 200.718 496.998C201.479 491.841 202.644 486.718 203.891 481.654C203.899 481.619 203.909 481.582 203.917 481.547C203.953 481.398 203.988 481.247 204.026 481.099C204.067 480.93 204.046 480.792 203.983 480.677C204.714 479.778 205.54 478.961 206.357 478.142C206.761 477.736 206.783 477.228 206.552 476.831C208.651 477.316 210.728 477.903 212.875 478.117C212.781 478.482 212.717 478.861 212.714 479.265C212.698 481.489 214.071 483.129 215.857 484.146ZM370.032 626.506C367.512 634.873 365.462 644.623 360.89 652.172C357.258 658.167 344.246 657.367 338.33 657.448C330.226 657.558 322.131 656.964 314.028 656.917C313.653 656.916 313.242 657.046 312.856 657.243C312.71 657.045 312.382 656.913 311.787 656.917C304.266 656.96 296.755 657.41 289.235 657.453C281.572 657.496 272.281 657.755 265.53 653.599C262.619 651.805 261.538 647.49 260.432 644.503C258.459 639.183 256.782 633.749 255.114 628.325C249.303 609.428 244.113 590.323 239.119 571.192C287.893 571.192 336.668 571.192 385.441 571.192C380.611 589.71 375.551 608.182 370.032 626.506ZM400.728 554.853C400.728 559.458 400.728 564.063 400.728 568.668C396.907 568.668 393.086 568.668 389.267 568.668C388.819 568.469 388.114 568.485 387.447 568.668C337.693 568.668 287.939 568.668 238.186 568.668C237.652 568.326 236.734 568.369 235.968 568.668C232.65 568.668 229.331 568.668 226.013 568.668C226.013 564.063 226.013 559.458 226.013 554.853C240.892 554.853 255.77 554.853 270.648 554.853C270.776 554.853 270.902 554.853 271.03 554.853C277.798 554.853 284.566 554.853 291.334 554.853C291.796 555.472 293.133 555.347 294.067 554.853C306.613 554.853 319.157 554.853 331.702 554.853C332.234 555.329 333.633 555.308 334.594 554.853C341.22 554.853 347.845 554.853 354.47 554.853C354.976 555.285 356.109 555.232 356.988 554.853C371.566 554.853 386.148 554.853 400.728 554.853ZM399.194 453.268C400.515 456.189 401.15 459.385 402.33 462.362C402.344 462.428 402.358 462.496 402.373 462.562C396.472 464.304 390.517 465.864 384.56 467.398C381.402 468.212 378.239 468.996 375.074 469.783C374.805 469.849 374.538 469.919 374.268 469.985C374.278 469.926 374.29 469.867 374.3 469.807C375.164 465.159 376.008 460.507 376.818 455.847C379.909 453.744 384.948 452.716 387.544 451.274C392.746 448.391 396.558 447.447 399.194 453.268ZM405.316 475.319C405.528 476.131 406.406 476.381 407.277 476.25C407.395 476.34 407.529 476.424 407.713 476.463C409.2 476.784 410.486 477.716 411.13 479.124C411.689 480.343 411.475 481.739 410.096 482.181C409.64 482.326 408.911 482.651 408.591 483.14C407.69 483.372 406.867 483.78 406.906 484.258C407.286 488.913 405.645 493.525 400.706 494.369C398.586 494.732 396.262 495.629 394.547 496.949C393.364 497.859 392.389 498.943 391.6 500.145C387.173 499.017 383.28 496.33 378.677 495.757C378.568 495.744 378.454 495.752 378.342 495.748C378.431 495.211 378.411 494.62 378.317 494.006C381.389 492.967 383.76 491.241 385.513 488.35C385.65 488.126 385.372 488.016 385.206 487.991C382.973 487.668 381.394 486.799 381.233 484.449C381.046 481.736 383.076 479.933 384.714 482.71C385.255 483.628 388.079 482.395 388.577 481.824C391.998 477.91 396.473 472.432 392.981 467.327C396.269 466.449 399.549 465.537 402.813 464.579C403.594 468.17 404.386 471.764 405.316 475.319ZM377.228 497.965C381.681 498.814 385.582 501.494 390.052 502.395C390.155 502.417 390.281 502.417 390.416 502.406C389.962 503.506 389.638 504.666 389.467 505.867C385.05 504.315 380.623 502.788 376.248 501.118C375.813 500.951 375.077 501.13 374.372 501.397C375.427 500.308 376.399 499.175 377.228 497.965ZM427.01 504.307C427.252 504.235 427.375 504.253 427.01 504.307V504.307ZM420.111 478.434C421.018 479.343 421.929 480.259 422.715 481.278C422.601 481.463 422.547 481.659 422.598 481.868C422.651 482.081 422.694 482.297 422.746 482.511C422.678 482.658 422.692 482.791 422.832 482.887C423.929 487.4 424.907 491.944 425.703 496.518C426.136 499.008 426.73 501.82 426.391 504.374C426.187 504.392 425.95 504.411 425.648 504.429C423.262 504.579 420.874 504.732 418.489 504.885C410.083 505.424 401.642 505.517 393.245 506.099C393.35 504.458 393.75 502.887 394.352 501.35C395.91 497.378 398.827 496.408 402.877 495.319C408.072 493.925 410.837 489.589 410.847 484.444C413.394 483.597 415.724 481.895 415.281 478.916C415.223 478.531 415.098 478.166 414.945 477.816C416.974 477.423 418.964 476.835 421.005 476.466C420.412 476.765 419.417 477.739 420.111 478.434ZM371.33 485.364C372.996 489.989 375.431 496.202 372.037 498.877C370.636 499.981 369.284 501.145 367.971 502.348C369.099 496.688 370.22 491.028 371.33 485.364ZM336.567 552.33C344.82 539.156 352.15 525.375 361.967 513.269C359.385 526.267 356.848 539.278 354.543 552.33C348.551 552.33 342.558 552.33 336.567 552.33ZM417.897 532.664C408.037 533.835 397.923 533.998 388.512 534.027C387.752 534.03 384.097 535.538 385.964 535.532C388.583 535.524 391.237 535.495 393.909 535.438C393.733 535.566 393.6 535.706 393.543 535.862C391.523 541.419 389.427 546.94 386.997 552.33C377.462 552.33 367.93 552.33 358.395 552.33C360.991 537.596 363.879 522.919 366.801 508.248C368.901 506.364 371.12 504.545 373.139 502.621C377.191 504.156 381.281 505.576 385.37 507.011C380.526 507.969 375.863 509.836 372.598 513.627C371.487 514.918 375.41 514.65 376.223 513.704C379.3 510.128 383.952 508.749 388.956 508.225C389.483 508.319 390.061 508.233 390.593 508.079C395.927 507.71 401.509 508.136 405.927 507.833C412.929 507.353 421.038 508.008 427.864 506.338C433.621 504.931 429.057 489.721 427.119 483.058C430.463 483.058 433.808 483.058 437.153 483.058C437.212 483.058 437.279 483.05 437.346 483.04C441.877 490.461 445.222 498.749 447.471 507.112C448.682 511.613 449.476 516.548 448.319 521.135C447.332 525.049 442.588 526.768 439.237 527.961C435.051 529.451 430.644 530.568 426.129 531.414C423.417 531.923 420.669 532.335 417.897 532.664ZM455.009 458.104C455.992 463.151 456.974 468.199 457.955 473.246C456.187 473.667 454.403 474.028 452.635 474.441C452.448 473.57 452.269 472.699 452.093 471.826C452.186 471.665 452.229 471.489 452.178 471.299C452.135 471.136 452.034 471.023 451.91 470.934C451.126 466.944 450.462 462.917 449.968 458.893C451.549 458.183 453.242 457.957 455.009 458.104ZM446.567 463.633C446.953 466.233 447.41 468.829 447.91 471.411C445.904 472.007 443.903 472.638 441.812 472.646C442.205 469.938 441.976 467.322 440.197 465.235C442.342 464.789 444.449 464.2 446.567 463.633ZM437.731 468.48C439.271 472.281 437.185 476.984 436.062 480.629C435.993 480.851 436.38 480.944 436.93 480.937C436.808 481.007 436.697 481.075 436.611 481.138C433.371 481.138 430.131 481.138 426.889 481.138C426.993 480.839 426.969 480.513 426.74 480.179C426.019 479.121 425.136 478.191 424.235 477.285C428.404 474.449 428.545 466.979 425.75 463.071C429.872 461.62 436.215 464.734 437.731 468.48ZM423.457 468.522C423.53 469.119 423.57 469.714 423.584 470.284C423.604 471.091 423.561 472.401 423.281 473.57C423.002 473.491 422.707 473.464 422.459 473.498C419.223 473.93 416.107 475.11 412.855 475.363C411.982 474.742 410.986 474.295 410.032 474.09C409.749 474.03 409.451 474.02 409.155 474.038C409.017 473.506 408.901 472.969 408.768 472.437C413.664 471.132 418.56 469.828 423.457 468.522ZM378.259 416.314C378.207 416.361 379.094 416.475 379.193 416.541C379.007 416.541 378.818 416.555 378.624 416.59C378.029 416.59 377.432 416.59 376.837 416.59C374.282 416.59 371.726 416.59 369.171 416.59C361.045 416.59 352.918 416.59 344.792 416.59C348.518 409.003 351.835 401.178 354.758 393.167C369.929 393.167 385.101 393.167 400.272 393.167C393.601 401.482 386.179 409.193 378.259 416.314ZM286.107 416.59C282.355 409.013 279.005 401.187 276.054 393.167C301.022 393.167 325.989 393.167 350.957 393.167C348.04 401.184 344.723 409.013 340.99 416.59C322.697 416.59 304.402 416.59 286.107 416.59ZM307.313 171.881C307.391 171.88 307.469 171.88 307.548 171.879C310.257 171.838 312.964 171.837 315.667 171.879C316.361 171.889 317.055 171.908 317.748 171.924C320.089 172.245 322.516 172.761 325.043 173.514C340.76 178.2 350.087 194.545 355.757 208.782C363.708 228.743 366.576 250.711 367.682 272.037C369.709 311.079 365.159 352.574 352.034 390.141C326.347 390.141 300.658 390.141 274.97 390.141C259.693 346.945 255.629 298.455 260.53 253.779C263.061 230.706 271.05 194.046 291.312 178.682C293.105 177.323 294.993 176.131 296.984 175.13C300.165 173.529 303.598 172.409 307.313 171.881ZM398.712 196.827C435.149 225.137 444.746 274.42 436.117 317.802C431.224 342.401 420.385 365.572 405.825 385.878C404.793 387.317 403.737 388.736 402.662 390.141C387.059 390.141 371.455 390.141 355.852 390.141C370.538 348.249 374.644 301.6 370.662 258.151C368.137 230.611 359.87 184.5 330.72 172.475C355.171 174.079 379.209 181.675 398.712 196.827ZM187.544 284.631C187.996 238.446 213.164 196.917 256.942 180.327C270.307 175.263 284.516 172.964 298.838 172.182C290.252 175.224 283.096 180.916 277.016 189.435C264.456 207.029 259.684 230.049 256.981 251.083C251.143 296.533 255.486 346.123 270.787 390.142C255.453 390.142 240.12 390.142 224.788 390.142C201.515 360.043 187.168 323.14 187.544 284.631ZM227.164 393.167C242.061 393.167 256.958 393.167 271.857 393.167C274.281 399.88 276.958 406.462 279.904 412.868C280.479 414.118 281.08 415.356 281.69 416.59C273.198 416.59 264.706 416.59 256.214 416.59C253.968 416.59 251.722 416.59 249.477 416.59C241.424 409.424 233.94 401.579 227.164 393.167ZM254.602 451.956C253.554 445.941 252.541 439.917 251.545 433.893C250.773 429.228 249.669 423.835 250.824 419.114C261.818 419.114 272.809 419.114 283.803 419.114C303.055 419.114 322.308 419.114 341.562 419.114C343.446 419.114 345.333 419.114 347.217 419.114C355.007 419.114 362.796 419.114 370.585 419.114C372.171 419.114 374.933 419.526 377.205 419.333C379.299 423.519 376.922 430.954 376.322 435.074C375.454 441.051 374.479 447.013 373.473 452.968C373.312 453.926 373.139 454.881 372.975 455.839C372.761 456.006 372.547 456.176 372.335 456.36C368.712 459.514 369.349 466.639 369.739 471.101C365.977 472.017 362.213 472.921 358.443 473.798C356.068 474.35 356.631 476.339 358.975 475.792C362.557 474.959 366.13 474.092 369.704 473.224C369.681 473.533 369.659 473.841 369.644 474.143C368.896 478.088 368.141 482.03 367.372 485.968C365.997 493.015 364.595 500.059 363.192 507.104C360.83 509.63 358.592 512.277 356.454 514.984C347.298 526.578 340.437 539.838 332.604 552.331C319.856 552.331 307.106 552.331 294.358 552.331C289.089 543.612 284.135 534.711 278.79 526.045C287.078 529.629 296.242 530.857 304.828 526.997C309.171 525.044 310.444 520.043 313.876 517.135C319.104 512.707 328.618 514.825 334.819 511.338C342.826 506.837 342.949 497.248 337.81 490.575C330.627 481.25 316.559 486.557 308.903 479.459C303.262 471.345 294.438 470.259 285.187 471.725C278.581 472.77 262.905 480.223 260.517 470.29C260.475 470.116 260.381 469.981 260.256 469.872C260.405 469.721 260.502 469.558 260.509 469.387C260.661 465.326 258.752 461.656 255.773 458.543C255.383 456.347 254.985 454.152 254.602 451.956ZM217.762 472.953C217.791 472.961 217.83 472.963 217.865 472.967C217.772 473.341 217.689 473.72 217.592 474.093C217.543 474.102 217.488 474.112 217.443 474.121C216.453 474.341 215.516 474.775 214.735 475.378C211.439 475.144 208.307 473.945 205.032 473.506C204.557 473.441 204.065 473.568 203.64 473.797C203.003 472.452 202.815 470.715 202.953 469.008C207.889 470.323 212.826 471.638 217.762 472.953ZM200.833 463.781C198.311 467.378 197.966 475.529 202.354 477.774C201.521 478.618 200.712 479.489 200.042 480.471C199.876 480.716 199.786 480.937 199.748 481.138C196.454 481.138 193.159 481.138 189.864 481.138C189.979 480.955 190.093 480.769 190.21 480.587C190.256 480.515 190.134 480.466 189.915 480.44C190.365 480.214 190.662 479.963 190.593 479.742C189.506 476.215 188.213 472.726 188.543 468.972C189.036 463.346 196.373 461.597 200.833 463.781ZM187.017 465.461C184.957 467.362 184.472 469.906 184.707 472.599C182.651 472.359 180.624 471.603 178.63 471.037C179.106 468.614 179.529 466.178 179.907 463.735C182.262 464.378 184.613 465.039 187.017 465.461ZM176.715 459.323C176.212 463.513 175.515 467.711 174.695 471.866C174.479 472.107 174.406 472.346 174.555 472.544C174.457 473.034 174.354 473.522 174.251 474.009C172.429 473.411 170.611 472.801 168.768 472.259C168.747 472.253 168.721 472.253 168.698 472.247C169.62 467.517 170.54 462.788 171.461 458.058C173.316 458.031 175.074 458.457 176.715 459.323ZM20.7344 595.618C31.6523 595.618 42.5689 595.618 53.4854 595.618C46.3184 591.162 50.979 580.639 57.1529 575.491C63.355 570.321 71.4346 568.305 77.3975 572.23C77.1583 541.719 143.659 539.027 137.555 571.709C144.888 568.384 153.946 570.335 159.765 576.045C165.738 581.904 166.031 588.954 160.986 593.967C172.694 593.967 184.402 593.967 196.11 593.967C198.745 593.967 198.087 596.98 195.805 596.98C182.812 596.98 169.819 596.98 156.825 596.98C156.082 597.357 154.673 597.313 154.01 596.98C153.308 596.98 152.605 596.98 151.904 596.98C149.268 596.98 149.927 593.967 152.209 593.967C153.85 593.967 155.491 593.967 157.133 593.967C168.608 584.282 149.063 566.144 137.142 574.515C137.045 574.584 136.934 574.639 136.814 574.691C136.394 576.086 135.861 577.533 135.184 579.045C134.64 580.257 130.799 580.685 131.299 579.569C149.138 539.796 71.8418 542.257 82.3283 577.884C82.3404 577.923 82.335 577.962 82.3391 578.001C82.4479 579.208 78.8019 580.181 78.4337 578.93C76.3654 574.986 72.7059 570.944 67.7859 571.531C63.5781 572.031 59.5921 575.573 57.1691 578.877C52.6992 584.969 51.4198 593.496 60.4549 595.619C60.6525 595.619 60.85 595.619 61.0476 595.619C62.9156 595.619 59.2602 597.124 58.4995 597.124C58.2294 597.124 57.9579 597.124 57.6878 597.124C57.5763 597.124 57.4634 597.124 57.3518 597.124C44.2958 597.124 31.2384 597.124 18.1824 597.124C16.317 597.123 19.9724 595.618 20.7344 595.618ZM444.837 418.478C442.221 410.518 445.124 402.295 453.139 399.037C457.447 397.287 461.711 397.766 465.165 399.841C467.567 391.469 476.926 386.549 485.016 384.742C495.216 382.466 505.353 385.766 509.612 395.239C518.748 388.055 542.796 397.877 539.649 409.405C545.157 408.163 553.151 408.66 550.673 416.038C549.862 418.45 547.268 418.979 550.429 419.15C552.633 419.269 554.836 419.385 557.041 419.486C561.93 419.708 566.818 419.906 571.713 419.934C573.671 419.945 570.085 421.624 569.212 421.618C561.444 421.575 553.672 421.174 545.918 420.721C545.711 420.709 545.027 420.596 545.243 420.205C547.733 415.725 546.869 407.32 539.087 410.904C538.478 412.177 537.529 413.463 536.169 414.745C535.324 415.54 531.468 415.755 533.082 414.237C546.195 401.898 513.923 388.322 510.583 398.951C510.197 400.178 506.314 400.722 506.703 399.49C506.747 399.349 506.799 399.217 506.849 399.08C506.779 399.014 506.723 398.94 506.695 398.846C503.902 389.652 495.723 384.567 486.153 386.282C478.115 387.723 468.885 393.207 468.482 402.291C468.478 402.379 468.456 402.464 468.423 402.547C469.515 403.76 470.454 405.176 471.17 406.78C471.956 408.539 468.09 409.648 467.275 407.826C464.901 402.516 459.083 399.069 453.515 402.138C447.74 405.322 446.808 411.716 448.772 417.556C448.952 418.093 448.753 418.559 448.373 418.913C449.163 419.7 448.298 421.278 446.644 421.278C439.477 421.278 432.309 421.278 425.141 421.278C422.496 421.278 423.299 418.478 425.504 418.478C431.945 418.478 438.391 418.478 444.837 418.478ZM658.474 768.237C650.314 768.237 642.152 768.237 633.992 768.237C622.361 753.412 628.083 729.964 613.917 716.708C608.197 711.356 601.085 707.806 597.836 700.252C594.246 691.908 594.933 681.552 594.137 672.715C593.645 667.252 592.432 657.491 586.236 655.287C581.509 653.605 577.966 659.09 576.226 662.507C570.869 673.026 572.12 684.153 572.643 695.476C573.147 706.391 567.095 716.291 563.088 726.441C560.299 717.692 557.912 708.811 558.049 699.57C558.151 692.61 558.831 681.647 550.4 679.024C546.175 677.711 542.097 679.104 539.942 683.027C537.064 688.264 535.466 694.268 533.018 699.645C528.52 709.518 510.923 702.483 502.205 703.043C488.533 703.922 480.827 713.476 476.669 725.132C471.109 704.859 464.965 684.711 462.913 663.741C461.599 650.321 467.337 637.049 466.762 623.521C466.555 618.668 462.296 607.013 455.305 611.732C449.142 615.894 448.741 627.825 447.438 634.352C446.304 640.022 444.355 644.871 440.415 649.295C436.914 653.227 431.619 654.331 428.422 658.722C424.211 664.503 423.465 672.995 423.062 679.859C422.621 687.339 423.073 694.768 422.827 702.204C397.203 687.992 366.644 690.698 338.623 694.347C307.169 698.444 273.348 706.588 242.093 697.292C209.116 687.484 180.807 663.779 145.458 662.345C113.903 661.065 86.8734 685.632 62.499 702.356C55.5658 707.112 48.4431 711.598 40.8769 715.259C40.0396 705.414 39.7588 679.194 28.0695 682.356C22.6791 683.814 21.1363 689.385 19.8918 694.266C17.7389 702.706 17.114 711.567 16.2028 720.206C15.8252 723.788 15.5026 727.414 14.707 730.933C14.1668 733.322 8.68902 735.694 7.0387 738.007C5.60744 740.012 6.0684 742.638 6.29686 744.889C6.62746 748.151 6.25789 751.357 5.99851 754.608C5.50933 760.768 3.96116 764.371 -0.481795 768.237C-9.28169 768.237 -18.0816 768.237 -26.8815 768.237C-28.1568 768.237 -31.0879 770.176 -28.47 770.176C60.2963 770.176 149.063 770.176 237.828 770.176C237.836 770.181 237.845 770.186 237.853 770.191C238.262 770.429 238.956 770.379 239.622 770.176C284.934 770.176 330.245 770.176 375.559 770.176C376.037 770.798 377.358 770.705 378.291 770.176C407.416 770.176 436.54 770.176 465.665 770.176C471.183 770.176 476.703 770.176 482.221 770.176C482.706 770.8 484.028 770.707 484.96 770.176C533.511 770.176 582.061 770.176 630.611 770.176C631.285 770.856 632.628 770.71 633.503 770.176C641.299 770.176 649.094 770.176 656.887 770.176C658.161 770.176 661.092 768.237 658.474 768.237ZM2.74895 768.237C8.05603 763.56 9.43623 759.247 10.0262 751.838C10.5597 745.126 8.10845 738.092 14.664 733.805C16.821 732.396 18.1165 732.197 18.7038 729.602C21.8848 715.526 19.7856 699.783 26.184 686.495C30.2385 678.073 34.1963 695.158 34.6385 697.867C35.9622 705.982 36.2014 714.252 37.9539 722.301C38.6084 725.309 39.6875 727.716 41.6322 730.069C44.414 733.437 49.4954 733.596 53.0836 735.601C59.455 739.161 60.5167 749.114 61.2612 758.01C60.8944 758.231 60.979 758.356 61.2948 758.414C61.5972 762.063 61.862 765.508 62.4318 768.237C42.5366 768.237 22.6441 768.237 2.74895 768.237ZM66.571 768.237C65.7028 764.962 65.3118 761.365 64.957 757.7C73.6736 753.44 75.2244 742.773 76.6866 733.974C77.7617 727.5 78.5681 720.946 80.9535 714.794C82.4009 711.061 85.0887 707.808 88.056 705.206C91.8714 701.856 96.9917 705.86 100.162 707.997C104.897 711.189 109.266 714.453 115.14 714.689C121.795 714.954 125.012 716.479 128.342 722.604C130.302 726.208 131.034 730.56 132.426 734.401C137.575 748.614 148.548 759.228 160.182 768.239C128.978 768.237 97.7738 768.237 66.571 768.237ZM165.555 768.237C158.135 762.596 151.752 756.648 146.488 749.882C146.507 749.873 146.527 749.866 146.544 749.855C154.544 745.191 156.914 731.519 159.311 723.46C160.949 717.952 162.443 712.337 164.704 707.043C165.395 705.427 166.277 703.284 167.731 702.192C168.127 701.891 170.998 706.592 171.311 707.202C178.443 721.122 177.027 739.033 193.356 745.706C200.579 748.656 206.481 753.101 213.159 757.007C220.069 761.05 227.356 764.399 234.376 768.236C211.436 768.237 188.495 768.237 165.555 768.237ZM240.947 768.237C240.939 768.233 240.936 768.228 240.928 768.223C232.421 763.261 223.403 759.232 214.898 754.258C207.723 750.061 201.238 745.944 193.612 742.54C184.031 738.262 182.391 727.06 179.655 718.025C178.094 712.871 176.168 704.222 171.393 700.82C163.847 695.445 159.567 710.441 158.162 714.798C156.08 721.256 154.348 727.819 152.17 734.247C150.721 738.523 148.897 744.915 145.026 747.921C140.225 741.334 136.43 733.971 133.738 725.369C131.491 718.189 127.066 713.184 119.342 713.16C110.51 713.131 105.419 706.615 97.8813 703.253C87.8047 698.763 78.9994 709.819 76.1772 718.115C72.6562 728.467 74.5552 748.562 64.7957 756.02C64.0525 748.348 63.14 740.583 57.9337 735.146C54.6183 731.683 48.9215 731.98 45.2943 728.707C42.5178 726.203 41.8351 721.668 41.229 718.124C71.3083 704.103 94.5041 677.297 126.68 667.462C162.472 656.521 196.343 683.482 227.931 695.846C257.523 707.43 287.858 704.223 318.598 699.883C349.63 695.5 383.897 688.627 413.859 701.386C416.419 702.476 418.849 703.822 421.248 705.223C421.625 705.444 422.144 705.467 422.668 705.365C422.529 707.535 422.328 709.709 421.987 711.884C420.084 724.011 405.994 732.802 397.143 739.651C388.2 746.572 374.997 755.569 375.286 768.237C330.506 768.237 285.726 768.237 240.947 768.237ZM379.237 768.237C378.325 756.314 391.486 747.659 399.686 741.295C408.489 734.464 418.26 727.616 423.743 717.627C427.18 711.369 426.962 703.505 427.014 696.594C427.096 686.022 426.482 675.846 429.212 665.514C431.142 658.217 435.8 656.414 441.26 652.466C445.292 649.551 448.541 644.421 449.982 639.714C450.838 636.915 454.504 612.833 457.744 613.659C468.608 616.43 460.808 644.938 459.696 651.77C457.316 666.367 461.171 681.257 464.602 695.416C468.985 713.494 474.546 731.26 478.591 749.424C479.975 755.642 481.069 761.915 481.84 768.237C447.641 768.237 413.44 768.237 379.237 768.237ZM485.869 768.237C484.422 755.807 481.605 743.655 478.404 731.581C480.298 723.373 483.085 715.201 489.348 709.285C497.014 702.041 507.516 704.624 516.648 706.562C521.152 707.517 527.608 706.825 531.428 704.037C533.678 702.395 536 700.785 537.185 698.184C538.455 695.393 538.755 692.805 540.549 690.108C541.894 688.087 542.441 685.564 543.316 683.321C545.442 677.857 550.048 681.434 552.253 685.063C556.177 691.516 553.66 701.235 554.38 708.384C555.208 716.607 558.151 724.946 560.905 732.901C560.888 732.969 560.866 733.035 560.847 733.101C560.702 733.656 560.939 734.007 561.351 734.193C561.737 735.313 562.119 736.424 562.486 737.526C565.876 747.71 569.463 757.832 572.133 768.239C543.379 768.237 514.625 768.237 485.869 768.237ZM576.301 768.237C573.248 756.024 568.913 744.183 564.976 732.238C567.692 722.399 573.269 713.656 575.863 703.796C578.598 693.394 574.54 682.368 576.982 671.748C577.998 667.327 579.548 662.532 582.506 659.005C585.994 654.845 588.975 666.358 589.331 667.874C591.378 676.607 590.763 685.89 592.184 694.751C592.959 699.581 594.726 703.934 597.834 707.716C602.502 713.396 609.451 716.519 613.743 722.525C623.308 735.907 619.959 754.603 629.171 768.237C611.549 768.237 593.925 768.237 576.301 768.237Z" fill="#A2C9F9"/>
</g>
<defs>
<linearGradient id="paint0_linear_43_4585" x1="249" y1="689" x2="1157.41" y2="557.872" gradientUnits="userSpaceOnUse">
<stop stop-color="#082175"/>
<stop offset="1" stop-color="#1342AD"/>
</linearGradient>
<clipPath id="clip0_43_4585">
<rect width="715" height="768" fill="white"/>
</clipPath>
</defs>
</svg>
