<svg width="96" height="44" viewBox="0 0 96 44" fill="none" xmlns="http://www.w3.org/2000/svg">
<path d="M10.2254 37.6385C9.55925 37.6385 9.02633 37.4498 8.62664 37.0723C8.24916 36.6726 8.06041 36.1508 8.06041 35.5068V17.5208H1.99845C0.66615 17.5208 0 16.9324 0 15.7555C0 14.5786 0.66615 13.9902 1.99845 13.9902H18.419C19.7513 13.9902 20.4175 14.5786 20.4175 15.7555C20.4175 16.9324 19.7513 17.5208 18.419 17.5208H12.3571V35.5068C12.3571 36.1508 12.1572 36.6726 11.7575 37.0723C11.3801 37.4498 10.8693 37.6385 10.2254 37.6385Z" fill="white"/>
<path d="M29.0826 20.8515C29.66 20.8071 30.1152 20.9293 30.4483 21.2179C30.7813 21.5066 30.9479 21.9396 30.9479 22.5169C30.9479 23.1164 30.8035 23.5605 30.5149 23.8492C30.2262 24.1379 29.7044 24.3266 28.9494 24.4154L27.9502 24.5154C26.6401 24.6486 25.6742 25.0927 25.0524 25.8477C24.4529 26.6026 24.1531 27.5463 24.1531 28.6788V35.6734C24.1531 36.3173 23.9533 36.8169 23.5536 37.1722C23.1539 37.5053 22.6543 37.6718 22.0548 37.6718C21.4552 37.6718 20.9556 37.5053 20.5559 37.1722C20.1784 36.8169 19.9897 36.3173 19.9897 35.6734V22.7834C19.9897 22.1616 20.1784 21.6842 20.5559 21.3511C20.9556 21.0181 21.4441 20.8515 22.0215 20.8515C22.5988 20.8515 23.0651 21.0181 23.4204 21.3511C23.7757 21.662 23.9533 22.1172 23.9533 22.7168V24.0491C24.3752 23.072 24.9969 22.3171 25.8185 21.7841C26.6623 21.2512 27.5949 20.9515 28.6163 20.8848L29.0826 20.8515Z" fill="white"/>
<path d="M34.8053 37.6718C34.2058 37.6718 33.7061 37.5053 33.3065 37.1722C32.929 36.8169 32.7402 36.3173 32.7402 35.6734V22.8167C32.7402 22.1727 32.929 21.6842 33.3065 21.3511C33.7061 21.0181 34.2058 20.8515 34.8053 20.8515C35.4048 20.8515 35.9044 21.0181 36.3041 21.3511C36.7038 21.6842 36.9037 22.1727 36.9037 22.8167V35.6734C36.9037 36.3173 36.7038 36.8169 36.3041 37.1722C35.9044 37.5053 35.4048 37.6718 34.8053 37.6718Z" fill="white"/>
<path d="M50.5566 20.7849C51.9555 20.7849 53.199 21.1402 54.2871 21.8508C55.3973 22.5613 56.2522 23.5716 56.8517 24.8817C57.4735 26.1696 57.7843 27.6574 57.7843 29.3449C57.7843 31.0325 57.4735 32.5092 56.8517 33.7748C56.2522 35.0405 55.4084 36.0176 54.3204 36.7059C53.2323 37.3943 51.9777 37.7384 50.5566 37.7384C49.402 37.7384 48.3694 37.4942 47.459 37.0057C46.5486 36.5172 45.8492 35.8399 45.3606 34.9739V41.7686C45.3606 42.346 45.1719 42.8012 44.7944 43.1343C44.4169 43.4673 43.9173 43.6339 43.2956 43.6339C42.6738 43.6339 42.1631 43.4562 41.7634 43.1009C41.3859 42.7457 41.1972 42.2794 41.1972 41.702V22.8167C41.1972 22.2171 41.3748 21.7397 41.7301 21.3845C42.1076 21.0292 42.6072 20.8515 43.229 20.8515C43.8507 20.8515 44.3503 21.0292 44.7278 21.3845C45.1053 21.7397 45.294 22.2171 45.294 22.8167V23.6494C45.7825 22.739 46.482 22.0395 47.3924 21.551C48.325 21.0403 49.3797 20.7849 50.5566 20.7849ZM49.4575 34.5076C50.7676 34.5076 51.789 34.0635 52.5218 33.1753C53.2545 32.2649 53.6209 30.9881 53.6209 29.3449C53.6209 27.6574 53.2545 26.3473 52.5218 25.4147C51.789 24.4821 50.7676 24.0157 49.4575 24.0157C48.1252 24.0157 47.0926 24.471 46.3599 25.3814C45.6493 26.2918 45.294 27.5908 45.294 29.2783C45.294 30.9437 45.6493 32.2316 46.3599 33.142C47.0926 34.0524 48.1252 34.5076 49.4575 34.5076Z" fill="white"/>
<path d="M70.5606 20.7849C71.9595 20.7849 73.203 21.1402 74.2911 21.8508C75.4013 22.5613 76.2562 23.5716 76.8557 24.8817C77.4775 26.1696 77.7883 27.6574 77.7883 29.3449C77.7883 31.0325 77.4775 32.5092 76.8557 33.7748C76.2562 35.0405 75.4124 36.0176 74.3244 36.7059C73.2363 37.3943 71.9817 37.7384 70.5606 37.7384C69.406 37.7384 68.3734 37.4942 67.463 37.0057C66.5526 36.5172 65.8532 35.8399 65.3647 34.9739V41.7686C65.3647 42.346 65.1759 42.8012 64.7984 43.1343C64.4209 43.4673 63.9213 43.6339 63.2996 43.6339C62.6779 43.6339 62.1671 43.4562 61.7674 43.1009C61.39 42.7457 61.2012 42.2794 61.2012 41.702V22.8167C61.2012 22.2171 61.3789 21.7397 61.7341 21.3845C62.1116 21.0292 62.6112 20.8515 63.233 20.8515C63.8547 20.8515 64.3543 21.0292 64.7318 21.3845C65.1093 21.7397 65.298 22.2171 65.298 22.8167V23.6494C65.7865 22.739 66.486 22.0395 67.3964 21.551C68.329 21.0403 69.3838 20.7849 70.5606 20.7849ZM69.4615 34.5076C70.7716 34.5076 71.793 34.0635 72.5258 33.1753C73.2585 32.2649 73.6249 30.9881 73.6249 29.3449C73.6249 27.6574 73.2585 26.3473 72.5258 25.4147C71.793 24.4821 70.7716 24.0157 69.4615 24.0157C68.1292 24.0157 67.0966 24.471 66.3639 25.3814C65.6533 26.2918 65.298 27.5908 65.298 29.2783C65.298 30.9437 65.6533 32.2316 66.3639 33.142C67.0966 34.0524 68.1292 34.5076 69.4615 34.5076Z" fill="white"/>
<path d="M92.3029 22.0506C92.4805 21.6509 92.7137 21.3623 93.0023 21.1846C93.3132 20.9848 93.6463 20.8848 94.0016 20.8848C94.5123 20.8848 94.9675 21.0625 95.3672 21.4178C95.7891 21.7508 96 22.1727 96 22.6834C96 22.9277 95.9334 23.1831 95.8002 23.4495L86.7072 42.5014C86.3297 43.2564 85.7413 43.6339 84.9419 43.6339C84.4312 43.6339 83.976 43.4673 83.5763 43.1343C83.1988 42.8234 83.0101 42.4237 83.0101 41.9352C83.0101 41.6909 83.0767 41.4134 83.2099 41.1025L85.4748 36.3395L79.2796 23.4495C79.1686 23.2275 79.1131 22.9721 79.1131 22.6834C79.1131 22.1727 79.324 21.7397 79.7459 21.3845C80.19 21.0292 80.6897 20.8515 81.2448 20.8515C81.6223 20.8515 81.9664 20.9515 82.2773 21.1513C82.5882 21.3289 82.8324 21.6176 83.0101 22.0173L87.6731 32.3093L92.3029 22.0506Z" fill="white"/>
<path d="M44.959 0.116762L28.2077 9.78085C27.5535 10.1567 27.6367 11.0675 28.2872 11.3421L32.129 12.954L42.5123 3.80314C42.711 3.62605 42.9929 3.8971 42.8231 4.10311L34.1167 14.7105V17.6198C34.1167 18.4727 35.1467 18.8089 35.6527 18.1908L37.9477 15.3972L42.4508 17.2837C42.964 17.5006 43.5495 17.1789 43.6435 16.6259L46.2456 1.01306C46.3685 0.28301 45.5843 -0.244648 44.959 0.116762Z" fill="white"/>
</svg>
