<svg width="57" height="56" viewBox="0 0 57 56" fill="none" xmlns="http://www.w3.org/2000/svg">
<rect x="3.33325" y="3" width="50" height="50" rx="25" fill="#1A56CA"/>
<g clip-path="url(#clip0_43_4423)">
<path d="M32.4999 35.5V33.8333C32.4999 32.9493 32.1487 32.1014 31.5236 31.4763C30.8985 30.8512 30.0506 30.5 29.1666 30.5H22.4999C21.6159 30.5 20.768 30.8512 20.1429 31.4763C19.5178 32.1014 19.1666 32.9493 19.1666 33.8333V35.5M37.4999 35.5V33.8333C37.4994 33.0948 37.2535 32.3773 36.801 31.7936C36.3486 31.2099 35.715 30.793 34.9999 30.6083M31.6666 20.6083C32.3836 20.7919 33.0191 21.2089 33.4729 21.7936C33.9268 22.3783 34.1731 23.0974 34.1731 23.8375C34.1731 24.5776 33.9268 25.2967 33.4729 25.8814C33.0191 26.4661 32.3836 26.8831 31.6666 27.0667M29.1666 23.8333C29.1666 25.6743 27.6742 27.1667 25.8332 27.1667C23.9923 27.1667 22.4999 25.6743 22.4999 23.8333C22.4999 21.9924 23.9923 20.5 25.8332 20.5C27.6742 20.5 29.1666 21.9924 29.1666 23.8333Z" stroke="white" stroke-width="1.67" stroke-linecap="round" stroke-linejoin="round"/>
</g>
<rect x="3.33325" y="3" width="50" height="50" rx="25" stroke="#D0E5FC" stroke-width="6"/>
<defs>
<clipPath id="clip0_43_4423">
<rect width="20" height="20" fill="white" transform="translate(18.3333 18)"/>
</clipPath>
</defs>
</svg>
